#!OML:ASF X:\für Bonn\!DataBase\2005_08_10_Bjorn_Final\c3d\bjorn.ASF
:FULLY-SPECIFIED
:DEGREES
230
root -16.2821 19.3304 -3.67155 1444.52 -7.1635 3.42398
lowerback -6.13427 1.41711 3.33153
upperback 6.46491 1.68204 -1.55403
thorax 10.5139 1.13739 -3.28512
lowerneck -4.01803 2.15421 1.97646
upperneck 12.0449 4.75924 -16.6513
head 4.70208 1.53636 -5.27015
rclavicle 6.95746e-015 1.11319e-014
rhumerus -32.2385 -13.345 -86.8767
rradius 43.1425
rwrist 1.94581
rhand -2.69077 5.61202
rfingers 7.12502
rthumb 23.0107 -23.0344
lclavicle 6.95746e-015 1.11319e-014
lhumerus -31.7441 -6.07867 88.1135
lradius 27.4783
lwrist -18.4526
lhand -21.2143 -6.32869
lfingers 7.12502
lthumb 5.1674 23.5883
rfemur -11.0894 -14.7277 10.2358
rtibia 26.4124
rfoot -16.637 6.28322
rtoes -13.6658
lfemur -15.4714 15.973 -14.1943
ltibia 30.6387
lfoot -12.175 0.168427
ltoes -10.1647
231
root -16.2209 19.3247 -3.66284 1444.62 -5.82991 3.36639
lowerback -6.24602 1.36026 3.28217
upperback 6.46248 1.60804 -1.54426
thorax 10.5695 1.09877 -3.25658
lowerneck -4.0063 2.22232 1.85847
upperneck 11.99 4.85869 -16.6337
head 4.69117 1.58637 -5.23731
rclavicle 1.60022e-014 -8.34896e-015
rhumerus -32.2416 -14.0037 -86.6785
rradius 40.2206
rwrist 2.19925
rhand -2.19235 4.80641
rfingers 7.12502
rthumb 23.4889 -23.7796
lclavicle 1.60022e-014 -8.34896e-015
lhumerus -31.9068 -6.754 88.3306
lradius 28.0323
lwrist -17.7936
lhand -21.2749 -6.45547
lfingers 7.12502
lthumb 5.10893 23.4629
rfemur -10.7524 -15.2194 10.118
rtibia 26.2166
rfoot -16.7677 5.63995
rtoes -13.6392
lfemur -15.6451 16.3893 -13.8865
ltibia 30.5714
lfoot -12.1214 0.97522
ltoes -10.692
232
root -16.1587 19.3189 -3.65246 1444.73 -4.47636 3.33025
lowerback -6.38482 1.32207 3.21247
upperback 6.46897 1.56234 -1.54978
thorax 10.6538 1.07366 -3.22846
lowerneck -4.01035 2.25236 1.75965
upperneck 11.9341 4.90325 -16.6045
head 4.67715 1.61059 -5.20713
rclavicle -1.3418e-014 7.95139e-015
rhumerus -32.254 -14.9477 -86.4012
rradius 37.34
rwrist 2.68194
rhand -1.89737 4.12891
rfingers 7.12502
rthumb 23.7718 -24.4206
lclavicle -1.3418e-014 7.95139e-015
lhumerus -32.0691 -7.48723 88.5663
lradius 28.6062
lwrist -17.1859
lhand -21.3888 -6.51341
lfingers 7.12502
lthumb 4.99897 23.4076
rfemur -10.3914 -15.6031 9.98835
rtibia 26.0058
rfoot -16.9488 4.83878
rtoes -13.787
lfemur -15.879 16.8552 -13.6401
ltibia 30.5105
lfoot -12.0491 1.94057
ltoes -11.648
233
root -16.0959 19.3128 -3.64006 1444.83 -3.07351 3.25765
lowerback -6.52381 1.2651 3.1211
upperback 6.49167 1.48899 -1.50338
thorax 10.7515 1.0314 -3.13658
lowerneck -4.05168 2.26826 1.60879
upperneck 11.9068 4.93604 -16.558
head 4.67588 1.62447 -5.16322
rclavicle -9.93923e-017 1.07344e-014
rhumerus -32.2757 -16.1691 -85.9617
rradius 34.4676
rwrist 3.49867
rhand -1.86245 3.6069
rfingers 7.12502
rthumb 23.8053 -24.9383
lclavicle -9.93923e-017 1.07344e-014
lhumerus -32.2156 -8.13762 88.8326
lradius 29.186
lwrist -16.6295
lhand -21.625 -6.5394
lfingers 7.12502
lthumb 4.7709 23.3869
rfemur -9.98629 -15.9372 9.90283
rtibia 25.7862
rfoot -17.1616 3.97157
rtoes -13.8509
lfemur -16.1426 17.2945 -13.388
ltibia 30.4566
lfoot -11.917 3.1214
ltoes -12.4742
234
root -16.0322 19.3059 -3.6264 1444.94 -1.61716 3.23228
lowerback -6.66117 1.19131 2.95563
upperback 6.50283 1.40181 -1.45624
thorax 10.8319 0.976105 -3.00464
lowerneck -4.07492 2.27365 1.45647
upperneck 11.895 4.95566 -16.506
head 4.67461 1.63218 -5.11853
rclavicle 4.77083e-015 -3.18055e-015
rhumerus -32.3895 -17.7155 -85.3504
rradius 31.6699
rwrist 4.68146
rhand -2.08519 3.20033
rfingers 7.12502
rthumb 23.5917 -25.3725
lclavicle 4.77083e-015 -3.18055e-015
lhumerus -32.3562 -8.73298 89.104
lradius 29.7441
lwrist -16.1869
lhand -21.8893 -6.47149
lfingers 7.12502
lthumb 4.51569 23.4604
rfemur -9.55223 -16.1008 9.78295
rtibia 25.5595
rfoot -17.4682 2.88816
rtoes -14.0076
lfemur -16.467 17.7374 -13.2256
ltibia 30.416
lfoot -11.8007 4.33908
ltoes -12.9541
235
root -15.9665 19.2974 -3.6108 1445.04 -0.1592 3.18672
lowerback -6.79541 1.14225 2.82999
upperback 6.52084 1.34643 -1.43532
thorax 10.9237 0.940763 -2.91863
lowerneck -4.12762 2.24448 1.42327
upperneck 11.8831 4.92338 -16.4897
head 4.67624 1.61675 -5.10862
rclavicle -2.11706e-014 5.56597e-015
rhumerus -32.5682 -19.5256 -84.63
rradius 28.9151
rwrist 6.06746
rhand -2.61515 2.91019
rfingers 7.12502
rthumb 23.0833 -25.7272
lclavicle -2.11706e-014 5.56597e-015
lhumerus -32.4497 -9.33253 89.3217
lradius 30.2518
lwrist -15.7825
lhand -22.1173 -6.41492
lfingers 7.12502
lthumb 4.29552 23.5215
rfemur -9.11062 -16.3754 9.67836
rtibia 25.3422
rfoot -17.734 1.88583
rtoes -14.3179
lfemur -16.8107 18.1916 -13.0824
ltibia 30.3803
lfoot -11.718 5.58359
ltoes -12.9603
